<?xml version="1.0" encoding="utf-8" ?>
<svg baseProfile="full" height="100%" version="1.1" viewBox="0,0,1000,120" width="100%" xmlns="http://www.w3.org/2000/svg" xmlns:ev="http://www.w3.org/2001/xml-events" xmlns:xlink="http://www.w3.org/1999/xlink"><defs /><rect fill="white" height="120" width="1000" x="0" y="0" /><path d="M0,0 M385.5658874511719,55.249839782714844 M385.30255126953125,57.86683654785156 L385.12640380859375,58.978797912597656 L384.8807373046875,60.882198333740234 L384.62176513671875,63.41725158691406 L384.44207763671875,66.10995483398438 L384.3765869140625,68.68647766113281 L384.43359375,70.88370513916016 L384.6064453125,72.55723571777344 L384.9248962402344,73.62467956542969 L385.3726501464844,74.11554718017578 L385.9357604980469,74.06708526611328 L386.6034851074219,73.4686279296875 L387.3368835449219,72.25175476074219 L388.0840759277344,70.41732025146484 L388.8371887207031,68.12450408935547 L389.52581787109375,65.68819427490234 L390.1096496582031,63.487369537353516 L390.56298828125,61.79402160644531 L390.8654479980469,60.67264175415039 L391.0215759277344,60.10105895996094 L391.0531921386719,60.05629348754883 L390.9413757324219,60.586814880371094 L390.72216796875,61.80292892456055 L390.443115234375,63.695213317871094 L390.18072509765625,66.05094909667969 L390.0102844238281,68.54539489746094 L389.9789123535156,70.81558990478516 L390.0907287597656,72.61177825927734 L390.3580322265625,73.84524536132812 L390.74774169921875,74.51676177978516 L391.24237060546875,74.6408920288086 L391.8118896484375,74.1854476928711 L392.4551696777344,73.05661010742188 L393.173095703125,71.20892333984375 L393.9847412109375,68.72267150878906 L394.8582458496094,65.82219696044922 L395.7533264160156,62.81182098388672 L396.62091064453125,59.96707534790039 L397.41534423828125,57.47019958496094 L398.0940246582031,55.4193115234375 L398.6395263671875,53.869239807128906 L399.03460693359375,52.8164176940918 L399.2694091796875,52.224491119384766 L399.38104248046875,51.976287841796875 M403.91632080078125,51.939483642578125 L403.70263671875,52.52389144897461 L403.3251953125,53.7352294921875 L402.80169677734375,55.6323356628418 L402.20977783203125,58.0546989440918 L401.55230712890625,60.812782287597656 L400.847412109375,63.720726013183594 L400.11376953125,66.57128143310547 L399.4264831542969,69.11764526367188 L398.8594970703125,71.15353393554688 L398.4935302734375,72.54737854003906 L398.35906982421875,73.2513198852539 L398.4688415527344,73.28485107421875 L398.8116760253906,72.5986099243164 L399.4234619140625,71.14274597167969 L400.3020935058594,69.02671813964844 L401.41217041015625,66.54911041259766 L402.6879577636719,64.11776733398438 L404.0221252441406,62.09102249145508 L405.3089294433594,60.645355224609375 L406.46392822265625,59.836341857910156 L407.4198303222656,59.70022201538086 L408.0889892578125,60.271766662597656 L408.41802978515625,61.555206298828125 L408.38397216796875,63.453590393066406 L408.048828125,65.74665832519531 L407.52252197265625,68.15282440185547 L406.9599304199219,70.40288543701172 L406.5063171386719,72.23249053955078 L406.2628173828125,73.47032165527344 L406.2482604980469,74.07511138916016 L406.36358642578125,74.22032165527344 L406.49884033203125,74.1388168334961 M415.031982421875,61.57075119018555 L415.28338623046875,61.1693000793457 L415.7088623046875,60.587039947509766 L416.2570495605469,59.9610710144043 L416.7961120605469,59.49073028564453 L417.2474670410156,59.21955108642578 L417.5702209472656,59.13180923461914 L417.7452697753906,59.172725677490234 L417.76605224609375,59.345001220703125 L417.6058044433594,59.67527770996094 L417.2253723144531,60.21906661987305 L416.602783203125,61.062232971191406 L415.755615234375,62.25522232055664 L414.7527160644531,63.82325744628906 L413.70135498046875,65.7405776977539 L412.69171142578125,67.88870239257812 L411.8120422363281,70.05012512207031 L411.12017822265625,71.97476959228516 L410.6485290527344,73.44390106201172 L410.44219970703125,74.3470230102539 L410.51715087890625,74.64837646484375 L410.8738098144531,74.3302230834961 L411.509033203125,73.36743927001953 L412.39556884765625,71.77713012695312 L413.4849548339844,69.69237518310547 L414.7289733886719,67.39020538330078 L416.0125427246094,65.1993637084961 L417.1859436035156,63.39445114135742 L418.1064147949219,62.11663055419922 L418.697021484375,61.37005615234375 L418.95989990234375,61.099021911621094 L418.95904541015625,61.2975959777832 L418.74188232421875,62.00790023803711 L418.3520202636719,63.254093170166016 L417.8504333496094,64.94355773925781 L417.34429931640625,66.85628509521484 L416.9598083496094,68.70378875732422 L416.76837158203125,70.25128173828125 L416.77825927734375,71.39564514160156 L416.96295166015625,72.15182495117188 L417.29058837890625,72.54411315917969 L417.7525634765625,72.54177856445312 L418.38055419921875,72.043212890625 L419.1767578125,70.92927551269531 L420.1251220703125,69.1847915649414 L421.1751403808594,66.93862915039062 L422.250244140625,64.4094467163086 L423.289794921875,61.8450813293457 L424.24322509765625,59.483638763427734 L425.0721130371094,57.511295318603516 L425.7314147949219,56.03815841674805 L426.1789855957031,55.108585357666016 L426.3738098144531,54.724822998046875 L426.3271179199219,54.903282165527344 L426.02349853515625,55.71309280395508 L425.5015563964844,57.21213912963867 L424.8070068359375,59.33930969238281 L424.0265808105469,61.91525650024414 L423.2639465332031,64.6686019897461 L422.6355285644531,67.3183364868164 L422.2010192871094,69.63227081298828 L422.0063781738281,71.46330261230469 L422.0521545410156,72.74580383300781 L422.31658935546875,73.49005889892578 L422.78045654296875,73.73062896728516 L423.4344482421875,73.49441528320312 L424.28594970703125,72.76760864257812 L425.34332275390625,71.55949401855469 L426.5754089355469,69.95127868652344 L427.90936279296875,68.09854125976562 L429.2297058105469,66.18187713623047 L430.426513671875,64.39227294921875 L431.3931884765625,62.86024475097656 L432.06610107421875,61.66240692138672 L432.40118408203125,60.83424758911133 L432.3932189941406,60.38576126098633 L432.04364013671875,60.310699462890625 L431.388916015625,60.656768798828125 L430.4642333984375,61.46680450439453 L429.38238525390625,62.754966735839844 L428.311279296875,64.46536254882812 L427.42120361328125,66.44136810302734 L426.8826599121094,68.4543228149414 L426.7945861816406,70.2821273803711 L427.15740966796875,71.74134826660156 L427.9223327636719,72.72962188720703 L429.01220703125,73.21925354003906 L430.2900695800781,73.19678497314453 L431.6818542480469,72.67322540283203 L433.104248046875,71.67139434814453 L434.4835510253906,70.2555923461914 L435.7764892578125,68.5492172241211 L436.94183349609375,66.72035217285156 L437.93707275390625,64.94141387939453 L438.76446533203125,63.36687469482422 L439.385986328125,62.07246780395508 L439.79522705078125,61.091957092285156 L440.0250244140625,60.434444427490234 L440.0972595214844,60.0866813659668 L440.0728454589844,60.055233001708984 L439.9823303222656,60.33859634399414 L439.81890869140625,60.907432556152344 L439.6235656738281,61.73752212524414 L439.4305114746094,62.798343658447266 L439.25189208984375,64.0528793334961 L439.1094970703125,65.47713470458984 L438.957275390625,67.02782440185547 L438.7578125,68.64578247070312 L438.4930419921875,70.24996185302734 L438.1304626464844,71.73444366455078 L437.6347961425781,73.00167846679688 L437.0076904296875,73.98596954345703 L436.25567626953125,74.65923309326172 L435.4405517578125,75.0348129272461 L434.6335754394531,75.1595687866211 L433.89080810546875,75.088623046875 L433.23919677734375,74.89484405517578 L432.72711181640625,74.66728973388672 L432.37615966796875,74.48001861572266 L432.1857604980469,74.36669921875 L432.1202087402344,74.3266372680664 M459.3839416503906,56.9687385559082 L459.37799072265625,56.93858337402344 L459.3879699707031,57.006141662597656 L459.4106750488281,57.31640625 L459.4039611816406,58.032936096191406 L459.28509521484375,59.24716567993164 L458.97991943359375,61.01287078857422 L458.45367431640625,63.25917053222656 L457.7581481933594,65.82814025878906 L457.01513671875,68.49990844726562 L456.34527587890625,71.01263427734375 L455.8348388671875,73.1405029296875 L455.52056884765625,74.68397521972656 L455.3809814453125,75.51136016845703 L455.36187744140625,75.62415313720703 L455.4013977050781,75.34308624267578 L455.44549560546875,74.97486114501953 M453.8459777832031,53.391502380371094 L453.87811279296875,53.340240478515625 L454.1988525390625,53.28742218017578 L454.97454833984375,53.21887969970703 L456.29193115234375,53.114723205566406 L458.0265197753906,52.932552337646484 L459.98431396484375,52.66884231567383 L461.97869873046875,52.35826110839844 L463.88946533203125,52.06731414794922 L465.57562255859375,51.824302673339844 L466.9398498535156,51.669837951660156 L467.90850830078125,51.6168212890625 L468.4707946777344,51.64601516723633 L468.697998046875,51.71923065185547 L468.73724365234375,51.78739929199219 L468.6915283203125,51.810359954833984 L468.6309814453125,51.83641052246094 L468.59271240234375,51.92339324951172 L468.5335998535156,52.139198303222656 L468.39385986328125,52.53521728515625 L468.11614990234375,53.121700286865234 L467.63287353515625,53.86716079711914 L466.93243408203125,54.76054763793945 L466.06097412109375,55.75550842285156 L465.0782470703125,56.823997497558594 L464.09722900390625,57.94814682006836 L463.2059326171875,59.12332534790039 L462.47052001953125,60.34101486206055 L461.92279052734375,61.61546325683594 L461.54937744140625,62.929019927978516 L461.30999755859375,64.26246643066406 L461.1766357421875,65.59211730957031 L461.0994873046875,66.89936828613281 L461.046875,68.17658233642578 L460.9949951171875,69.44450378417969 L460.933349609375,70.69855499267578 L460.845947265625,71.92115020751953 L460.7208251953125,73.04222106933594 L460.54107666015625,73.97090148925781 L460.35986328125,74.59517669677734 L460.2219543457031,74.91851043701172 M462.556884765625,55.75605010986328 L462.634521484375,55.816505432128906 L462.8647766113281,55.83827209472656 L463.333984375,55.75717544555664 L464.06640625,55.51781463623047 L464.98699951171875,55.1439208984375 L465.982666015625,54.7432861328125 L466.89208984375,54.404666900634766 L467.5948486328125,54.167991638183594 L468.0713806152344,54.05399703979492 L468.322509765625,54.04396438598633 L468.341796875,54.14585876464844 L468.10498046875,54.43364334106445 L467.53558349609375,54.97500991821289 L466.6141052246094,55.81549835205078 L465.416015625,56.978973388671875 L464.06048583984375,58.45042037963867 L462.69549560546875,60.20779800415039 L461.44873046875,62.216888427734375 L460.4053955078125,64.3836669921875 L459.6148986816406,66.51890563964844 L459.1128234863281,68.3982162475586 L458.9182434082031,69.8396987915039 L459.0267028808594,70.7510986328125 L459.4158020019531,71.12960815429688 L460.0648193359375,71.00698852539062 L460.9257507324219,70.39130401611328 L461.947265625,69.31396484375 L463.0662536621094,67.86766052246094 L464.2008361816406,66.1976547241211 L465.27911376953125,64.474609375 L466.244140625,62.839195251464844 L467.0511474609375,61.38790512084961 L467.6646423339844,60.19318771362305 L468.0667724609375,59.3109245300293 L468.27374267578125,58.73739242553711 L468.34222412109375,58.45367431640625 L468.3169860839844,58.42462158203125 L468.21875,58.66328811645508 L468.02032470703125,59.239803314208984 L467.6975402832031,60.25867462158203 L467.2506103515625,61.73448181152344 L466.71270751953125,63.6223258972168 L466.12603759765625,65.76288604736328 L465.5618591308594,67.96965789794922 L465.07598876953125,70.05768585205078 L464.7220458984375,71.8775405883789 L464.51898193359375,73.3199462890625 L464.4681396484375,74.33323669433594 L464.537353515625,74.90374755859375 L464.70782470703125,75.10733032226562 L464.892333984375,75.09843444824219 L465.03369140625,75.01458740234375 M472.79937744140625,58.29488754272461 L472.8155212402344,58.39442443847656 L472.8140869140625,58.67384338378906 L472.753173828125,59.24964141845703 L472.5760192871094,60.21089172363281 L472.22235107421875,61.61343765258789 L471.6785888671875,63.45693588256836 L470.9937438964844,65.64826202392578 L470.2668151855469,68.00000762939453 L469.62823486328125,70.25473022460938 L469.17755126953125,72.14527893066406 L468.931396484375,73.41434478759766 L468.84088134765625,74.05976104736328 M472.2133483886719,53.39437484741211 L472.23040771484375,53.27611541748047 L472.32025146484375,53.05152130126953 L472.5347900390625,52.69453430175781 L472.91259765625,52.18138122558594 L473.44024658203125,51.48044967651367 L474.0639953613281,50.607635498046875 L474.7344055175781,49.63770294189453 L475.41925048828125,48.64887619018555 L476.115234375,47.7152099609375 L476.8180847167969,46.866455078125 L477.4873352050781,46.131919860839844 L478.06866455078125,45.53041076660156 L478.51641845703125,45.13405227661133 L478.79150390625,45.0 L478.87384033203125,45.20479965209961 L478.73065185546875,45.814247131347656 L478.3388671875,46.9041748046875 L477.712158203125,48.491546630859375 L476.9075012207031,50.59601593017578 L476.0155334472656,53.16541290283203 L475.12213134765625,56.074729919433594 L474.31024169921875,59.13837814331055 L473.65899658203125,62.164913177490234 L473.22418212890625,64.94104766845703 L473.05078125,67.33002471923828 L473.1575927734375,69.23645782470703 L473.5088195800781,70.59903717041016 L474.10400390625,71.32650756835938 L474.9097595214844,71.40107727050781 L475.853759765625,70.87918853759766 L476.6800842285156,70.15904235839844 L477.2338562011719,69.56088256835938 M485.756591796875,56.217323303222656 L485.705810546875,55.89061737060547 L485.52069091796875,55.464141845703125 L485.1261291503906,55.086761474609375 L484.4761962890625,54.95240783691406 L483.6209716796875,55.10361862182617 L482.6441650390625,55.540618896484375 L481.68682861328125,56.232200622558594 L480.8655090332031,57.17562484741211 L480.26629638671875,58.3463134765625 L479.92352294921875,59.6915283203125 L479.8697204589844,61.15251541137695 L480.0603942871094,62.650245666503906 L480.45458984375,64.1207275390625 L480.9455871582031,65.53264617919922 L481.3931579589844,66.85482788085938 L481.6568298339844,68.04637145996094 L481.65777587890625,69.08892059326172 L481.34332275390625,69.94595336914062 L480.76202392578125,70.60244750976562 L479.971923828125,71.05609130859375 L479.03948974609375,71.29194641113281 L478.04327392578125,71.31458282470703 L477.0660400390625,71.17957305908203 L476.21331787109375,70.90187072753906 L475.60693359375,70.52326202392578 L475.3054504394531,70.06843566894531 L475.23675537109375,69.65648651123047 L475.29132080078125,69.36779022216797 M494.4884948730469,61.107479095458984 L494.50335693359375,61.13792037963867 L494.61907958984375,61.213741302490234 L494.92230224609375,61.3392219543457 L495.4903869628906,61.48164749145508 L496.3597717285156,61.58397674560547 L497.54559326171875,61.61327362060547 L498.99761962890625,61.56261444091797 L500.63018798828125,61.43962478637695 L502.33380126953125,61.26605224609375 L503.9962463378906,61.06562423706055 L505.5100402832031,60.86321258544922 L506.76824951171875,60.67643737792969 L507.675537109375,60.52107238769531 L508.2059631347656,60.40314865112305 L508.413818359375,60.3092041015625 L508.4173583984375,60.238216400146484 L508.33642578125,60.18746566772461 L508.2357482910156,60.13432693481445 L508.15435791015625,60.086631774902344 L508.1041564941406,60.05270004272461 M529.8401489257812,53.754173278808594 L529.57568359375,53.501712799072266 L529.1078491210938,53.11065673828125 L528.4234619140625,52.66928482055664 L527.5591430664062,52.34246826171875 L526.47900390625,52.258392333984375 L525.15087890625,52.533226013183594 L523.5978393554688,53.26931381225586 L521.8966064453125,54.532936096191406 L520.1610107421875,56.338375091552734 L518.5242919921875,58.61555480957031 L517.0974731445312,61.24436569213867 L515.9697875976562,64.04010772705078 L515.2224731445312,66.7850112915039 L514.9140625,69.2620620727539 L515.058837890625,71.3075942993164 L515.6857299804688,72.74763488769531 L516.7337646484375,73.51604461669922 L518.0855712890625,73.65019226074219 L519.3115234375,73.43038940429688 L520.1485595703125,73.13214111328125 M532.917724609375,61.370941162109375 L533.0123901367188,60.95600891113281 L533.109619140625,60.332496643066406 L533.1148071289062,59.61175537109375 L532.9193115234375,58.97685241699219 L532.4788818359375,58.481170654296875 L531.7962036132812,58.186527252197266 L530.9041137695312,58.17027282714844 L529.835693359375,58.54518508911133 L528.6373291015625,59.39103698730469 L527.3682861328125,60.724308013916016 L526.1328125,62.49563980102539 L525.0311279296875,64.57512664794922 L524.1812744140625,66.76898956298828 L523.6683349609375,68.8356704711914 L523.5640258789062,70.54454803466797 L523.865234375,71.71952819824219 L524.53125,72.25017547607422 L525.470947265625,72.08893585205078 L526.589599609375,71.23200988769531 L527.8006591796875,69.74024200439453 L529.064453125,67.78799438476562 L530.32763671875,65.64578247070312 L531.5379638671875,63.5986213684082 L532.6420288085938,61.87648010253906 L533.57666015625,60.596858978271484 L534.3284301757812,59.742401123046875 L534.9199829101562,59.27350997924805 L535.38671875,59.150142669677734 L535.7489013671875,59.367652893066406 L536.0088500976562,59.95775604248047 L536.1358642578125,60.95005798339844 L536.1209716796875,62.27720642089844 L535.9677124023438,63.84659957885742 L535.7158203125,65.5035400390625 L535.4004516601562,67.11576080322266 L535.0914306640625,68.6036376953125 L534.8370361328125,69.9272689819336 L534.6759033203125,71.04651641845703 L534.626708984375,71.95527648925781 L534.6820068359375,72.63755798339844 L534.80322265625,73.09799194335938 L534.9654541015625,73.3739242553711 L535.1212158203125,73.51107025146484 L535.243408203125,73.55140686035156 L535.3252563476562,73.55337524414062 L535.3692626953125,73.53993225097656 L535.3858032226562,73.5213623046875 L535.3865966796875,73.50565338134766 L535.3718872070312,73.48918151855469 L535.3497314453125,73.46642303466797 L535.3549194335938,73.455810546875 L535.3968505859375,73.44332885742188 L535.4696655273438,73.43292999267578 L535.5652465820312,73.42413330078125 L535.6537475585938,73.40655517578125 L535.7022705078125,73.37335205078125 L535.7263793945312,73.33177185058594 L535.7249755859375,73.28565216064453 L535.703369140625,73.25093841552734 L535.69482421875,73.23384094238281 L535.7056884765625,73.22539520263672 L535.7218627929688,73.20765686035156 L535.74267578125,73.17676544189453 L535.758544921875,73.13774108886719 L535.7627563476562,73.10694885253906 L535.7664184570312,73.08277893066406 L535.7823486328125,73.07198333740234 L535.8068237304688,73.06086730957031 L535.8443603515625,73.05558776855469 L535.8800048828125,73.03759002685547 L535.9125366210938,73.01712036132812 L535.9365234375,72.97944641113281 L535.960693359375,72.94569396972656 L535.9807739257812,72.91387939453125 L535.999755859375,72.89756774902344 L536.005615234375,72.87351989746094 L536.005859375,72.84957885742188 L536.01171875,72.81492614746094 L536.0321655273438,72.78740692138672 L536.0631103515625,72.76765441894531 L536.0911865234375,72.76353454589844 L536.1094360351562,72.76155090332031 L536.1151733398438,72.76160430908203 L536.1136474609375,72.74834442138672 L536.110107421875,72.72686767578125 L536.107666015625,72.70352172851562 L536.1033935546875,72.68763732910156 M538.0115966796875,59.21493148803711 L537.9529418945312,59.525352478027344 L537.9137573242188,60.11063003540039 L537.9358520507812,60.9726448059082 L538.0564575195312,61.9966926574707 L538.2503662109375,63.129520416259766 L538.455810546875,64.31774139404297 L538.6280517578125,65.56253814697266 L538.753662109375,66.86763763427734 L538.837158203125,68.22586822509766 L538.9085693359375,69.56613159179688 L538.9883422851562,70.81108856201172 L539.0509033203125,71.85092163085938 L539.0887451171875,72.63981628417969 L539.0910034179688,73.16291809082031 L539.06298828125,73.44212341308594 L539.051025390625,73.40292358398438 L539.1036376953125,72.98528289794922 L539.2327880859375,72.15182495117188 L539.3895263671875,71.24697875976562 L539.5184326171875,70.54414367675781 M540.4953002929688,57.083255767822266 L540.6429443359375,56.653743743896484 L541.005859375,55.907981872558594 L541.6212158203125,54.89425277709961 L542.4764404296875,53.751075744628906 L543.5189208984375,52.53117752075195 L544.6978759765625,51.31975555419922 L545.9284057617188,50.20172119140625 L547.1168823242188,49.27821350097656 L548.1331787109375,48.648216247558594 L548.8771362304688,48.365989685058594 L549.2900390625,48.48344421386719 L549.375,49.07121276855469 L549.163330078125,50.18714904785156 L548.6968383789062,51.845863342285156 L548.048583984375,53.998817443847656 L547.30029296875,56.534507751464844 L546.5457763671875,59.30368423461914 L545.8922729492188,62.168853759765625 L545.42724609375,64.99072265625 L545.1785888671875,67.63294219970703 L545.1525268554688,69.92476654052734 L545.279296875,71.71827697753906 L545.4756469726562,72.94834899902344 L545.6703491210938,73.57377624511719 L545.8093872070312,73.63027954101562 L545.8807373046875,73.22613525390625 L545.9092407226562,72.67279052734375 L545.908935546875,72.20516204833984 M543.1047973632812,61.244110107421875 L543.301025390625,61.26698303222656 L543.7818603515625,61.292118072509766 L544.646240234375,61.29361343383789 L545.8887329101562,61.230255126953125 L547.4404907226562,61.06114959716797 L549.1984252929688,60.7725830078125 L551.0132446289062,60.37735366821289 L552.7474365234375,59.892906188964844 L554.2781982421875,59.33286666870117 L555.49365234375,58.718727111816406 L556.3475341796875,58.073448181152344 L556.8511962890625,57.44535827636719 L557.019775390625,56.898277282714844 L556.9154052734375,56.50013732910156 L556.5596923828125,56.289913177490234 L555.961181640625,56.31132507324219 L555.1502685546875,56.5956916809082 L554.1656494140625,57.16923522949219 L553.0748291015625,58.04792404174805 L551.9744873046875,59.2470588684082 L550.92236328125,60.741981506347656 L549.9854125976562,62.48921585083008 L549.2332153320312,64.39212036132812 L548.7254028320312,66.3020248413086 L548.527099609375,68.05140686035156 L548.658935546875,69.49955749511719 L549.1201171875,70.55989837646484 L549.90234375,71.21488952636719 L550.96826171875,71.4681167602539 L552.244873046875,71.31804656982422 L553.6420288085938,70.78205108642578 L555.061279296875,69.88545989990234 L556.45361328125,68.69113159179688 L557.812255859375,67.26960754394531 L559.162109375,65.70580291748047 L560.5217895507812,64.08141326904297 L561.894775390625,62.51628494262695 L563.2731323242188,61.12045669555664 L564.6007080078125,59.997161865234375 L565.79541015625,59.19578552246094 L566.76171875,58.72018051147461 L567.4324340820312,58.506988525390625 L567.8084716796875,58.477149963378906 L567.954833984375,58.525482177734375 L567.9500732421875,58.56990051269531 L567.8539428710938,58.568870544433594 L567.675048828125,58.50646209716797 L567.4017333984375,58.38606262207031 L567.0126953125,58.249027252197266 L566.455078125,58.156227111816406 L565.6759643554688,58.210269927978516 L564.6295166015625,58.543453216552734 L563.3107299804688,59.27219009399414 L561.8005981445312,60.46558380126953 L560.2577514648438,62.1008415222168 L558.86474609375,64.04629516601562 L557.7882690429688,66.07762145996094 L557.1488037109375,67.93223571777344 L556.9639892578125,69.39849090576172 L557.187255859375,70.36833953857422 L557.7420654296875,70.80572509765625 L558.5503540039062,70.71575927734375 L559.5631713867188,70.09278106689453 L560.7755126953125,68.94139862060547 L562.1539306640625,67.35353088378906 L563.625,65.5105209350586 L565.0661010742188,63.637359619140625 L566.318359375,61.97193145751953 L567.2664794921875,60.65142059326172 L567.86083984375,59.72846221923828 L568.1194458007812,59.265464782714844 L568.092529296875,59.301055908203125 L567.8381958007812,59.88599395751953 L567.4136962890625,61.07413101196289 L566.905029296875,62.777732849121094 L566.407470703125,64.79307556152344 L566.0183715820312,66.87869262695312 L565.8067016601562,68.75371551513672 L565.7996826171875,70.22428894042969 L566.0008544921875,71.17475128173828 L566.4052124023438,71.52580261230469 L567.0073852539062,71.22791290283203 L567.8117065429688,70.28536987304688 L568.8131103515625,68.76013946533203 L569.96875,66.81631469726562 L571.2210083007812,64.66046905517578 L572.4855346679688,62.52242660522461 L573.641845703125,60.59402847290039 L574.5997924804688,59.03343200683594 L575.3045043945312,57.94985580444336 L575.7133178710938,57.409889221191406 L575.8275146484375,57.463897705078125 L575.667724609375,58.152732849121094 L575.2376098632812,59.470184326171875 L574.6040649414062,61.33072280883789 L573.8903198242188,63.53501892089844 L573.247314453125,65.80130767822266 L572.8125,67.85740661621094 L572.6632080078125,69.50334167480469 L572.7960205078125,70.62570190429688 L573.17138671875,71.16421508789062 L573.7630004882812,71.07579040527344 L574.5994262695312,70.33048248291016 L575.6936645507812,68.9579849243164 L577.0201416015625,67.10157775878906 L578.4850463867188,65.029296875 L579.901611328125,63.061649322509766 L581.1027221679688,61.46185302734375 L581.9855346679688,60.348785400390625 L582.4924926757812,59.76182174682617 L582.6438598632812,59.697914123535156 L582.4774169921875,60.19025802612305 L582.0363159179688,61.2720832824707 L581.416259765625,62.88087463378906 L580.742919921875,64.815673828125 L580.125,66.84022521972656 L579.688232421875,68.71548461914062 L579.478515625,70.2994613647461 L579.5065307617188,71.52401733398438 L579.7630615234375,72.33454895019531 L580.197509765625,72.7199935913086 L580.7158203125,72.73025512695312 L581.1690673828125,72.55014038085938 L581.4580078125,72.35411071777344 M597.203857421875,55.88662338256836 L597.257568359375,55.86586380004883 L597.2977905273438,55.95000457763672 L597.274169921875,56.26300811767578 L597.1212158203125,56.94081497192383 L596.82080078125,58.04112243652344 L596.3720703125,59.56260681152344 L595.7922973632812,61.44513702392578 L595.137939453125,63.587188720703125 L594.4795532226562,65.854736328125 L593.8677978515625,68.1202392578125 L593.339111328125,70.26715850830078 L592.8944702148438,72.1656494140625 L592.523193359375,73.68806457519531 L592.2251586914062,74.73110961914062 L592.0235595703125,75.29383087158203 L591.9138793945312,75.49208068847656 M590.385009765625,52.68522644042969 L590.7464599609375,52.61610412597656 L591.5408325195312,52.524261474609375 L592.8197021484375,52.43132781982422 L594.4747314453125,52.37510681152344 L596.3355712890625,52.33234405517578 L598.2132568359375,52.27385330200195 L599.9644775390625,52.18869400024414 L601.49365234375,52.08583068847656 L602.7254638671875,51.967498779296875 L603.6087646484375,51.879878997802734 L604.1019287109375,51.86473846435547 L604.1774291992188,52.00173568725586 L603.8370971679688,52.41367721557617 L603.1136474609375,53.24030685424805 L602.0803833007812,54.5561637878418 L600.8538818359375,56.3878173828125 L599.583984375,58.67752456665039 L598.4267578125,61.3052864074707 L597.507568359375,64.0738754272461 L596.9118041992188,66.74970245361328 L596.6640625,69.08488464355469 L596.7384033203125,70.88302612304688 L597.09326171875,72.03001403808594 L597.6854248046875,72.49697875976562 L598.4839477539062,72.27000427246094 L599.478515625,71.36478424072266 L600.6171264648438,69.85237121582031 L601.8121948242188,67.95024871826172 L602.9387817382812,65.97955322265625 L603.8631591796875,64.26754760742188 L604.5046997070312,63.039859771728516 L604.8333740234375,62.41128158569336 L604.86572265625,62.39043426513672 L604.6730346679688,63.012916564941406 L604.3324584960938,64.28833770751953 L603.9393920898438,66.10134887695312 L603.6111450195312,68.21588134765625 L603.4293212890625,70.324462890625 L603.4385986328125,72.12535095214844 L603.678466796875,73.45339965820312 L604.120849609375,74.23754119873047 L604.7416381835938,74.43109130859375 L605.5152587890625,74.00013732910156 L606.421630859375,72.92182159423828 L607.397216796875,71.24393463134766 L608.4072265625,69.1387710571289 L609.3592529296875,66.85226440429688 L610.1953735351562,64.6459732055664 L610.8746337890625,62.74346160888672 L611.4159545898438,61.2862548828125 L611.8085327148438,60.30829620361328 L612.0830078125,59.78831481933594 L612.25048828125,59.68268585205078 L612.3632202148438,59.9208984375 L612.488037109375,60.428951263427734 L612.7088623046875,61.04725646972656 L613.0396118164062,61.55859375 L613.463134765625,61.78664779663086 L613.8416748046875,61.774505615234375 L614.0938110351562,61.64112854003906 M617.7958984375,58.191078186035156 L617.8363647460938,58.56778335571289 L617.7966918945312,59.40565872192383 L617.595947265625,60.803436279296875 L617.1722412109375,62.70005416870117 L616.5827026367188,64.95665740966797 L615.9445190429688,67.34066009521484 L615.3914794921875,69.57861328125 L615.0100708007812,71.40921020507812 L614.8348999023438,72.67910766601562 L614.798583984375,73.3740005493164 L614.8255004882812,73.64038848876953 M619.0657958984375,53.921058654785156 L619.0326538085938,53.82022476196289 L619.0023803710938,53.72200012207031 L618.9832763671875,53.65520095825195 L618.983642578125,53.64863967895508 M622.5459594726562,58.91826629638672 L622.6063232421875,58.930816650390625 L622.628173828125,59.07271194458008 L622.535400390625,59.4754638671875 L622.254638671875,60.2760009765625 L621.779541015625,61.548099517822266 L621.1177978515625,63.25416946411133 L620.3502197265625,65.29137420654297 L619.568359375,67.45048522949219 L618.90576171875,69.454833984375 L618.4595336914062,71.0771255493164 L618.2666015625,72.18780517578125 L618.2757568359375,72.73153686523438 L618.4641723632812,72.73350524902344 L618.8133544921875,72.18208312988281 L619.3676147460938,71.03308868408203 L620.1575927734375,69.33897399902344 L621.2061767578125,67.29399108886719 L622.4741821289062,65.17514038085938 L623.9305419921875,63.28387451171875 L625.4532470703125,61.80656814575195 L626.910888671875,60.79380416870117 L628.1400146484375,60.23350524902344 L629.0244140625,60.12956619262695 L629.475830078125,60.505714416503906 L629.5104370117188,61.4104118347168 L629.1402587890625,62.81081771850586 L628.455810546875,64.58670806884766 L627.58056640625,66.56570434570312 L626.685791015625,68.57789611816406 L625.903076171875,70.45856475830078 L625.333740234375,72.11402130126953 L625.0419921875,73.37242889404297 L625.0389404296875,74.09619903564453 L625.30712890625,74.24955749511719 L625.670654296875,74.06101989746094 L625.974853515625,73.77252197265625 M636.9234619140625,59.99424743652344 L636.8338012695312,59.72169494628906 L636.5321044921875,59.376373291015625 L635.92724609375,59.10041046142578 L635.03857421875,59.099891662597656 L633.99853515625,59.446006774902344 L632.9843139648438,60.18367385864258 L632.1754150390625,61.27085876464844 L631.7105712890625,62.65055465698242 L631.645263671875,64.21507263183594 L631.980224609375,65.85165405273438 L632.6251220703125,67.44619750976562 L633.3932495117188,68.93168640136719 L634.0791015625,70.25288391113281 L634.486328125,71.40718841552734 L634.447021484375,72.3899917602539 L633.9065551757812,73.19007110595703 L632.9432983398438,73.77763366699219 L631.750244140625,74.15155792236328 L630.5802001953125,74.33368682861328 L629.6986694335938,74.3785171508789 L629.2607421875,74.32676696777344 L629.17236328125,74.2478256225586 L629.2643432617188,74.176513671875 " fill="none" stroke="black" stroke-linecap="round" stroke-width="1" /></svg>